#!OML:ASF X:\für Bonn\!DataBase\2005_08_11_Bastian_Final\c3d\Bastian.ASF
:FULLY-SPECIFIED
:DEGREES
31
root 2.20255 22.6294 5.79261 715.78 -0.899369 -4.94703
lowerback 3.25382 0.136264 2.81459
upperback 3.59195 0.234175 -0.339209
thorax 1.87964 0.184998 -1.92933
lowerneck -15.8533 -5.0787 -12.9114
upperneck 2.68952 -5.05919 10.7797
head 3.96808 -2.10522 5.03594
rclavicle 2.73329e-015 0
rhumerus -60.8967 25.9174 -91.2091
rradius 121.376
rwrist 7.35922
rhand -14.7165 24.3575
rfingers 7.12502
rthumb 11.4381 -5.31047
lclavicle 2.73329e-015 0
lhumerus -35.6361 -23.9701 78.3536
lradius 114.129
lwrist -143.005
lhand -32.4957 7.11584
lfingers 7.12502
lthumb -5.72733 37.0184
rfemur -5.5724 -2.315 26.6027
rtibia 57.7135
rfoot 4.13563 -24.7314
rtoes 43.8759
lfemur -11.7245 7.59064 -16.4715
ltibia 62.8882
lfoot 21.6873 -18.9875
ltoes -36.1767
32
root 2.19723 22.8124 5.92026 715.653 -0.98317 -4.90374
lowerback 4.13495 0.222503 2.86741
upperback 3.78641 0.375345 -0.39084
thorax 1.59665 0.255588 -2.01873
lowerneck -15.5627 -5.11138 -12.9812
upperneck 2.29167 -5.10886 10.8673
head 3.81213 -2.13256 5.0741
rclavicle -2.18663e-015 -7.95139e-016
rhumerus -61.0937 25.4212 -91.7787
rradius 121.559
rwrist 8.00654
rhand -14.3175 24.1475
rfingers 7.12502
rthumb 11.8229 -5.49872
lclavicle -2.18663e-015 -7.95139e-016
lhumerus -37.155 -23.2587 78.6774
lradius 114.148
lwrist -143.22
lhand -32.5263 6.49058
lfingers 7.12502
lthumb -5.7569 36.3924
rfemur -6.87163 -2.81364 26.249
rtibia 59.6723
rfoot 4.36281 -24.7375
rtoes 43.7576
lfemur -12.5575 8.06685 -16.4151
ltibia 63.8638
lfoot 22.6491 -18.9632
ltoes -35.2884
33
root 2.19051 22.9703 6.04683 715.698 -1.09959 -4.96027
lowerback 4.77684 0.295928 2.95602
upperback 3.92898 0.493768 -0.373675
thorax 1.39363 0.315162 -2.05824
lowerneck -15.2803 -5.10153 -13.1161
upperneck 2.04745 -5.09592 10.9327
head 3.69774 -2.13152 5.12157
rclavicle 7.35503e-015 -4.77083e-015
rhumerus -61.1086 25.0051 -92.2854
rradius 121.655
rwrist 8.46306
rhand -13.7254 23.7566
rfingers 7.12502
rthumb 12.3939 -5.85596
lclavicle 7.35503e-015 -4.77083e-015
lhumerus -38.711 -22.4434 78.9238
lradius 114.217
lwrist -143.511
lhand -32.5545 5.95044
lfingers 7.12502
lthumb -5.78407 35.8515
rfemur -8.33924 -3.18006 26.0902
rtibia 61.4272
rfoot 4.96161 -24.7314
rtoes 43.6523
lfemur -13.5659 8.59355 -16.2726
ltibia 64.7237
lfoot 23.5484 -18.8826
ltoes -34.4411
34
root 2.18287 23.1256 6.17789 715.751 -1.25462 -5.03471
lowerback 5.36207 0.381149 3.04048
upperback 4.09105 0.626664 -0.355519
thorax 1.24417 0.382858 -2.09628
lowerneck -14.9482 -5.0772 -13.2436
upperneck 1.70576 -5.06882 11.0351
head 3.54569 -2.12255 5.18188
rclavicle 5.26779e-015 7.15625e-015
rhumerus -60.9025 24.6536 -92.7334
rradius 121.675
rwrist 8.62729
rhand -13.1201 23.1793
rfingers 7.12502
rthumb 12.9774 -6.39708
lclavicle 5.26779e-015 7.15625e-015
lhumerus -40.0581 -21.5942 79.022
lradius 114.233
lwrist -143.951
lhand -32.6599 5.43945
lfingers 7.12502
lthumb -5.88583 35.3377
rfemur -9.70555 -3.38338 26.009
rtibia 62.8793
rfoot 5.8329 -24.5243
rtoes 43.7321
lfemur -14.4939 9.1952 -16.1125
ltibia 65.4011
lfoot 24.1592 -19.1223
ltoes -34.4976
35
root 2.17437 23.2741 6.31241 715.81 -1.38705 -5.07838
lowerback 5.89539 0.448323 3.07327
upperback 4.25986 0.732347 -0.349409
thorax 1.12921 0.436582 -2.11769
lowerneck -14.6492 -5.02358 -13.3258
upperneck 1.41186 -5.00658 11.0901
head 3.40639 -2.0973 5.22234
rclavicle 9.93923e-016 -2.38542e-015
rhumerus -60.6408 24.392 -93.2541
rradius 121.609
rwrist 8.36896
rhand -12.6564 22.7298
rfingers 7.12502
rthumb 13.4244 -6.81761
lclavicle 9.93923e-016 -2.38542e-015
lhumerus -41.1982 -20.6992 79.0289
lradius 113.987
lwrist -144.589
lhand -32.9475 4.7119
lfingers 7.12502
lthumb -6.1635 34.6022
rfemur -10.9617 -3.48574 25.9618
rtibia 64.0278
rfoot 6.94944 -24.0863
rtoes 43.7264
lfemur -15.3702 9.80439 -15.9931
ltibia 65.9977
lfoot 24.3756 -19.6661
ltoes -34.7341
36
root 2.165 23.4159 6.45089 715.788 -1.51747 -5.03798
lowerback 6.48948 0.518905 3.02583
upperback 4.44155 0.840695 -0.391652
thorax 0.994161 0.490407 -2.1461
lowerneck -14.622 -5.01786 -13.4226
upperneck 1.52838 -4.99794 11.169
head 3.4415 -2.092 5.26418
rclavicle -6.95746e-016 -1.66979e-014
rhumerus -60.3029 24.1552 -93.7666
rradius 121.036
rwrist 8.35604
rhand -12.4877 22.4939
rfingers 7.12502
rthumb 13.587 -7.04276
lclavicle -6.95746e-016 -1.66979e-014
lhumerus -42.1636 -19.8181 78.9218
lradius 113.62
lwrist -145.377
lhand -33.2904 4.32904
lfingers 7.12502
lthumb -6.49455 34.2095
rfemur -12.0111 -3.46323 25.8763
rtibia 64.8397
rfoot 8.00513 -23.5032
rtoes 43.6306
lfemur -16.0834 10.3851 -15.972
ltibia 66.4862
lfoot 24.3364 -20.0917
ltoes -34.3431
37
root 2.15452 23.5483 6.59153 715.759 -1.63174 -4.88981
lowerback 7.05617 0.563622 2.8144
upperback 4.61633 0.903898 -0.443291
thorax 0.862095 0.518176 -2.09066
lowerneck -14.8275 -5.0249 -13.6319
upperneck 2.01201 -4.98298 11.3108
head 3.62833 -2.07713 5.34233
rclavicle 9.0447e-015 0
rhumerus -60.028 24.1279 -94.3519
rradius 120.261
rwrist 7.9922
rhand -12.4912 22.3969
rfingers 7.12502
rthumb 13.5836 -7.13993
lclavicle 9.0447e-015 0
lhumerus -43.0835 -18.7981 78.7794
lradius 113.236
lwrist -146.326
lhand -33.726 3.96299
lfingers 7.12502
lthumb -6.91504 33.8301
rfemur -12.9462 -3.36916 25.6964
rtibia 65.3499
rfoot 8.98165 -22.7544
rtoes 43.2448
lfemur -16.7457 10.9285 -16.0823
ltibia 66.8777
lfoot 24.061 -20.5082
ltoes -34.0729
38
root 2.14419 23.6679 6.73214 715.7 -1.7355 -4.83409
lowerback 7.66024 0.601368 2.71239
upperback 4.78281 0.962992 -0.492523
thorax 0.70343 0.545709 -2.09549
lowerneck -15.0962 -5.06082 -13.9273
upperneck 2.59181 -4.99559 11.5476
head 3.86367 -2.07105 5.46306
rclavicle -3.57812e-015 -5.56597e-015
rhumerus -59.7758 24.0958 -94.9428
rradius 119.139
rwrist 7.66772
rhand -12.9534 22.829
rfingers 7.12502
rthumb 13.1381 -6.73713
lclavicle -3.57812e-015 -5.56597e-015
lhumerus -43.8928 -17.8682 78.6129
lradius 112.459
lwrist -147.391
lhand -34.0257 4.59672
lfingers 7.12502
lthumb -7.2044 34.4541
rfemur -13.7232 -3.20781 25.6541
rtibia 65.5573
rfoot 9.73957 -21.8462
rtoes 42.4651
lfemur -17.3534 11.4267 -16.0937
ltibia 67.1933
lfoot 23.6178 -20.8721
ltoes -34.2007
39
root 2.132 23.7682 6.87273 715.576 -1.82865 -4.74731
lowerback 8.29101 0.615442 2.53907
upperback 4.97475 0.984656 -0.545247
thorax 0.553863 0.553434 -2.06223
lowerneck -15.3074 -5.07719 -14.233
upperneck 3.05509 -4.97942 11.775
head 4.05124 -2.05244 5.58704
rclavicle -1.23246e-014 -6.36111e-015
rhumerus -59.4329 24.1737 -95.4943
rradius 117.748
rwrist 7.58941
rhand -13.5718 23.2539
rfingers 7.12502
rthumb 12.542 -6.34969
lclavicle -1.23246e-014 -6.36111e-015
lhumerus -44.609 -16.8941 78.4351
lradius 111.414
lwrist -148.382
lhand -34.1642 5.55641
lfingers 7.12502
lthumb -7.33802 35.4092
rfemur -14.3434 -2.96266 25.6108
rtibia 65.5301
rfoot 10.2483 -20.8205
rtoes 41.4043
lfemur -17.7735 11.8329 -16.1452
ltibia 67.3479
lfoot 22.9631 -20.9564
ltoes -34.5614
40
root 2.12006 23.8551 7.01475 715.414 -1.87261 -4.67414
lowerback 8.93281 0.617048 2.38721
upperback 5.16607 0.989268 -0.592256
thorax 0.398182 0.552927 -2.03434
lowerneck -15.3429 -5.0829 -14.5694
upperneck 3.36544 -4.95767 12.008
head 4.16482 -2.03582 5.72072
rclavicle 1.3418e-014 -2.38542e-015
rhumerus -58.9655 24.2034 -95.9879
rradius 116.341
rwrist 7.38945
rhand -13.8521 23.34
rfingers 7.12502
rthumb 12.2717 -6.27991
lclavicle 1.3418e-014 -2.38542e-015
lhumerus -45.1685 -15.9106 78.2832
lradius 110.264
lwrist -149.341
lhand -34.2767 6.197
lfingers 7.12502
lthumb -7.44661 36.0459
rfemur -14.825 -2.72587 25.5838
rtibia 65.3046
rfoot 10.5052 -19.6184
rtoes 40.3577
lfemur -18.0544 12.0863 -16.1923
ltibia 67.3823
lfoot 22.0104 -20.6949
ltoes -35.3832
41
root 2.10718 23.9368 7.15994 715.261 -1.91119 -4.56653
lowerback 9.53931 0.634107 2.2109
upperback 5.3496 1.00933 -0.670844
thorax 0.255884 0.560193 -2.02641
lowerneck -15.2837 -5.09015 -14.7921
upperneck 3.59437 -4.95921 12.1346
head 4.23518 -2.03707 5.79973
rclavicle -3.18055e-015 1.35174e-014
rhumerus -58.3862 24.1814 -96.4964
rradius 114.889
rwrist 7.12245
rhand -13.9509 23.3066
rfingers 7.12502
rthumb 12.1764 -6.31905
lclavicle -3.18055e-015 1.35174e-014
lhumerus -45.614 -15.0563 78.1761
lradius 108.83
lwrist -150.155
lhand -34.2237 6.04083
lfingers 7.12502
lthumb -7.39546 35.8916
rfemur -15.2188 -2.44082 25.5281
rtibia 64.8923
rfoot 10.7809 -18.1133
rtoes 39.1244
lfemur -18.3295 12.3265 -16.2944
ltibia 67.3121
lfoot 20.7125 -20.3756
ltoes -37.1461
42
root 2.09415 24.0092 7.30691 715.148 -1.91251 -4.40163
lowerback 10.0698 0.646276 1.9801
upperback 5.51667 1.01436 -0.771663
thorax 0.137609 0.559274 -2.00868
lowerneck -15.0629 -5.05099 -14.923
upperneck 3.61494 -4.91883 12.1831
head 4.2056 -2.02404 5.84293
rclavicle -5.96354e-016 -4.77083e-015
rhumerus -57.7769 24.1412 -96.9609
rradius 113.42
rwrist 6.86489
rhand -13.9728 23.1839
rfingers 7.12502
rthumb 12.1553 -6.443
lclavicle -5.96354e-016 -4.77083e-015
lhumerus -45.9811 -14.21 78.0784
lradius 107.18
lwrist -150.854
lhand -34.0298 5.83302
lfingers 7.12502
lthumb -7.20829 35.6903
rfemur -15.5761 -2.15179 25.4142
rtibia 64.3481
rfoot 11.185 -16.3579
rtoes 38.1618
lfemur -18.6082 12.4657 -16.4879
ltibia 67.1374
lfoot 19.3819 -19.8533
ltoes -38.9884
